:SAMPLES-PER-SECOND 30
:FULLY-SPECIFIED
:DEGREES
659
root  13.0432 40.7823 8.43222 120.179 87.7156 118.855
RightUpLeg  -5.17849 -10.8841 -9.40979
RightLeg  6.71814 -10.1885 2.99294
RightFoot  0.806323 -0.0505565 0.511327
RightToes  0.000481921 0.542163 -0.142578
Spine  15.2724 -1.22035 -1.00875
Spine1  -11.8166 -1.81171 5.71093
HEad  8.16463 6.50738 -1.10061
LeftShoulder1  4.14826 -9.67311 -25.3561
LeftArm  -8.87846 3.37297 -33.0873
LeftForeArm  -174.894 -59.8716 -166.427
LeftHand  -0.25398 0.0180481 5.50724
RightShoulder  2.06374 3.9173 21.5376
RightArm  -3.82138 7.77571 47.5743
RightForeArm  -174.059 61.767 165.072
RightHand  -0.868512 -12.8286 12.2411
LeftUpLeg  -2.43776 5.8419 4.16951
LeftLeg  0.715182 16.5072 -4.53976
LeftFoot  2.38694 0.259385 -2.27542
LeftToes  1.06247e-005 4.65869e-005 -8.65511e-006
660
root  13.4311 40.7638 8.44643 114.352 87.7471 111.991
RightUpLeg  -6.14475 -10.9344 -9.25572
RightLeg  7.50738 -10.0597 2.70078
RightFoot  0.120153 -0.048966 0.461287
RightToes  0.000481921 0.542163 -0.142578
Spine  14.2227 -1.86469 -3.14076
Spine1  -10.949 -2.87842 7.6673
HEad  5.70914 8.8251 -1.09249
LeftShoulder1  3.20446 -5.50728 -29.429
LeftArm  -9.58422 25.9941 -33.317
LeftForeArm  -174.372 -42.4372 -172.026
LeftHand  -0.25398 0.0180481 5.50724
RightShoulder  1.55436 1.51428 24.7708
RightArm  -5.85086 -13.5145 49.1143
RightForeArm  -169.008 46.4469 171.068
RightHand  -1.00557 -11.7747 15.9187
LeftUpLeg  -3.12151 5.93011 4.14665
LeftLeg  1.20469 16.6488 -4.57691
LeftFoot  1.73655 0.259506 -2.35686
LeftToes  1.06247e-005 4.65869e-005 -8.65511e-006
661
root  13.6873 40.7351 8.40441 102.802 87.9013 100.603
RightUpLeg  -6.10198 -11.3777 -9.26229
RightLeg  8.41687 -9.12456 2.45886
RightFoot  -0.451408 -0.0515227 0.481409
RightToes  0.000481921 0.542163 -0.142578
Spine  12.5612 -2.42278 -4.70537
Spine1  -8.47609 -3.82777 8.83032
HEad  6.24756 10.5466 -0.745951
LeftShoulder1  2.08865 -1.97553 -31.7663
LeftArm  -15.277 38.91 -40.2844
LeftForeArm  -176.787 -38.2338 -172.665
LeftHand  -0.25398 0.0180481 5.50724
RightShoulder  1.07477 -0.181519 26.1326
RightArm  -8.66547 -24.8944 51.9988
RightForeArm  -174.349 42.8526 171.499
RightHand  -0.593046 -10.5795 10.7964
LeftUpLeg  -2.86891 6.13831 4.23986
LeftLeg  2.12102 16.8317 -4.3864
LeftFoot  0.929596 0.263177 -2.50121
LeftToes  1.06247e-005 4.65869e-005 -8.65511e-006
662
root  13.7394 40.706 8.33021 78.2089 87.9029 77.4548
RightUpLeg  -5.16626 -11.9126 -9.35231
RightLeg  9.41762 -7.47088 1.96754
RightFoot  -0.799026 -0.0593737 0.592856
RightToes  0.000481921 0.542163 -0.142578
Spine  12.1351 -2.41879 -5.3336
Spine1  -6.6003 -4.02399 8.89025
HEad  8.81423 10.9468 -0.243858
LeftShoulder1  1.62345 -0.68196 -32.4531
LeftArm  -22.3665 41.6984 -48.4022
LeftForeArm  -175.909 -40.6479 -172.019
LeftHand  -0.25398 0.0180481 5.50724
RightShoulder  0.772564 -1.06358 25.5176
RightArm  -8.25681 -24.9247 53.7799
RightForeArm  -178.585 46.2174 170.111
RightHand  -0.238664 -9.20154 5.19862
LeftUpLeg  -1.50582 6.38048 4.35486
LeftLeg  3.08901 17.3431 -4.07509
LeftFoot  0.281212 0.260597 -2.57721
LeftToes  1.06247e-005 4.65869e-005 -8.65511e-006
663
root  13.681 40.6821 8.28468 54.74 87.3126 55.2246
RightUpLeg  -4.69056 -12.0571 -9.44375
RightLeg  10.357 -6.07662 1.33747
RightFoot  -1.02933 -0.0660568 0.688101
RightToes  0.000481921 0.542163 -0.142578
Spine  12.5667 -1.9223 -5.16058
Spine1  -6.43512 -3.44541 8.13593
HEad  10.9992 10.1679 -0.185032
LeftShoulder1  2.15009 -1.89669 -33.4758
LeftArm  -23.1464 38.3425 -47.8738
LeftForeArm  -176.191 -44.4604 -170.868
LeftHand  -0.25398 0.0180481 5.50724
RightShoulder  0.854366 -0.766174 25.0161
RightArm  -5.4223 -18.5138 51.6502
RightForeArm  179.951 50.8567 168.327
RightHand  -0.173681 -8.48271 4.01334
LeftUpLeg  -0.2825 6.51217 4.2842
LeftLeg  3.53032 18.1772 -3.97308
LeftFoot  0.0358638 0.250282 -2.51587
LeftToes  1.06247e-005 4.65869e-005 -8.65511e-006
664
root  13.6359 40.6644 8.27165 47.9722 86.6475 48.7293
RightUpLeg  -4.95011 -12.0231 -9.59708
RightLeg  10.9353 -5.40049 1.01301
RightFoot  -1.25329 -0.0701109 0.74098
RightToes  0.000481921 0.542163 -0.142578
Spine  12.1446 -1.52473 -3.87527
Spine1  -6.3443 -2.65653 6.12481
HEad  11.7478 8.91002 -0.548463
LeftShoulder1  3.48135 -4.72201 -36.0715
LeftArm  -18.2228 31.6975 -39.4452
LeftForeArm  -179.3 -47.4542 -169.669
LeftHand  -0.25398 0.0180481 5.50724
RightShoulder  1.46498 1.02148 26.187
RightArm  -3.74686 -11.3839 47.3678
RightForeArm  178.394 53.9491 166.865
RightHand  -0.21693 -9.341 4.27773
LeftUpLeg  0.0669597 6.48869 4.02847
LeftLeg  3.47813 18.8528 -4.09233
LeftFoot  0.0339341 0.239123 -2.40112
LeftToes  1.06247e-005 4.65869e-005 -8.65511e-006
665
root  13.6112 40.6517 8.25951 51.4863 86.5796 52.2529
RightUpLeg  -4.99537 -12.2456 -9.84327
RightLeg  11.0627 -5.24014 1.04963
RightFoot  -1.43036 -0.0787424 0.863659
RightToes  0.000481921 0.542163 -0.142578
Spine  10.7122 -1.52377 -1.73524
Spine1  -4.80156 -2.12269 3.19786
HEad  11.4576 7.74624 -0.751567
LeftShoulder1  4.89412 -7.42753 -38.5898
LeftArm  -13.1969 23.0468 -31.9772
LeftForeArm  179.602 -50.2327 -168.54
LeftHand  -0.25398 0.0180481 5.50724
RightShoulder  2.18513 3.00121 27.5898
RightArm  -3.91688 -5.58525 44.9813
RightForeArm  174.448 57.27 164.82
RightHand  -0.121686 -9.39353 1.19121
LeftUpLeg  0.0534557 6.4147 3.83354
LeftLeg  3.40908 18.8382 -4.16168
LeftFoot  0.0410659 0.235695 -2.36206
LeftToes  1.06247e-005 4.65869e-005 -8.65511e-006
666
root  13.5552 40.6507 8.25857 64.5824 87.0784 65.7086
RightUpLeg  -4.34947 -12.5125 -10.0348
RightLeg  10.8743 -5.70329 1.1513
RightFoot  -1.46277 -0.0908133 1.03879
RightToes  0.000481921 0.542163 -0.142578
Spine  9.67029 -1.68224 -0.465066
Spine1  -2.73865 -2.00034 1.56338
HEad  10.4695 6.87477 -0.563865
LeftShoulder1  5.62984 -8.978 -38.9097
LeftArm  -10.5047 14.1752 -30.5687
LeftForeArm  -178.361 -54.1138 -167.015
LeftHand  -0.25398 0.0180481 5.50724
RightShoulder  2.42437 3.78704 27.2024
RightArm  -4.36107 -0.969286 45.6453
RightForeArm  169.071 61.5721 161.637
RightHand  0.0189681 -7.72174 -3.40061
LeftUpLeg  0.207989 6.37116 3.86575
LeftLeg  3.44605 18.0278 -4.0893
LeftFoot  0.122266 0.240327 -2.40349
LeftToes  1.06247e-005 4.65869e-005 -8.65511e-006
